# xmcd CD database file
#
# Track frame offsets:
#	150
#	14765
#	30363
#	50730
#	73640
#	95118
#	111812
#	124462
#	138329
#	152007
#	165783
#	179679
#	196553
#
# Disc length: 2824 seconds
#
# Revision: 0
# Processed by: cddbd v1.5.2PL0 Copyright (c) Steve Scherf et al.
# Submitted via: CDex 1.78
#
DISCID=b00b060d
DTITLE=Rebekka Bakken - Morning Hours
DYEAR=2009
DGENRE=Jazz
TTITLE0=Not a Woman
TTITLE1=Sometimes
TTITLE2=Ghost in this House
TTITLE3=Powder Room Collapse
TTITLE4=No Easy Way
TTITLE5=To Be Your Lover
TTITLE6=If You Don't Ask for More
TTITLE7=I Can Always Forget
TTITLE8=Starlight of Yout Heart
TTITLE9=Contents of My Heart
TTITLE10=October Nights
TTITLE11=Like Cologne
TTITLE12=In the Early Morning Hours
EXTD=YEAR: 2009
EXTT0=
EXTT1=
EXTT2=
EXTT3=
EXTT4=
EXTT5=
EXTT6=
EXTT7=
EXTT8=
EXTT9=
EXTT10=
EXTT11=
EXTT12=
PLAYORDER=
